<svg xmlns="http://www.w3.org/2000/svg" viewBox="0 0 1226 498" width="1226" height="498"><rect width="1226" height="498" fill="#181818" rx="16"/><text x="613.0" y="42" font-size="26" fill="#ffffff" text-anchor="middle" font-family="Segoe UI, Arial, sans-serif" font-weight="700">Евеліна 3.9</text><rect x="30" y="96" width="78" height="78" rx="12" fill="#2b2b2b" stroke="#3a3a3a" stroke-width="1.5"/><text x="69.0" y="140.95" font-size="17" fill="#f2f2f2" text-anchor="middle" font-family="Segoe UI, Arial, sans-serif" font-weight="600">Esc</text><rect x="30" y="184" width="78" height="78" rx="12" fill="#1d3f66" stroke="#3a3a3a" stroke-width="1.5"/><text x="69.0" y="233.5" font-size="30" fill="#f2f2f2" text-anchor="middle" font-family="Segoe UI, Arial, sans-serif" font-weight="600">Є</text><rect x="30" y="272" width="78" height="78" rx="12" fill="#2b2b2b" stroke="#3a3a3a" stroke-width="1.5"/><text x="69.0" y="316.95" font-size="17" fill="#f2f2f2" text-anchor="middle" font-family="Segoe UI, Arial, sans-serif" font-weight="600">Tab</text><rect x="118" y="96" width="78" height="78" rx="12" fill="#2b2b2b" stroke="#3a3a3a" stroke-width="1.5"/><text x="157.0" y="145.5" font-size="30" fill="#f2f2f2" text-anchor="middle" font-family="Segoe UI, Arial, sans-serif" font-weight="600">Я</text><rect x="118" y="184" width="78" height="78" rx="12" fill="#1d3f66" stroke="#3a3a3a" stroke-width="1.5"/><text x="157.0" y="233.5" font-size="30" fill="#f2f2f2" text-anchor="middle" font-family="Segoe UI, Arial, sans-serif" font-weight="600">И</text><rect x="118" y="272" width="78" height="78" rx="12" fill="#2b2b2b" stroke="#3a3a3a" stroke-width="1.5"/><text x="157.0" y="321.5" font-size="30" fill="#f2f2f2" text-anchor="middle" font-family="Segoe UI, Arial, sans-serif" font-weight="600">Ж</text><rect x="206" y="78" width="78" height="78" rx="12" fill="#2b2b2b" stroke="#3a3a3a" stroke-width="1.5"/><text x="245.0" y="127.5" font-size="30" fill="#f2f2f2" text-anchor="middle" font-family="Segoe UI, Arial, sans-serif" font-weight="600">Й</text><rect x="206" y="166" width="78" height="78" rx="12" fill="#1d3f66" stroke="#3a3a3a" stroke-width="1.5"/><text x="245.0" y="215.5" font-size="30" fill="#f2f2f2" text-anchor="middle" font-family="Segoe UI, Arial, sans-serif" font-weight="600">В</text><rect x="206" y="254" width="78" height="78" rx="12" fill="#2b2b2b" stroke="#ff9f2e" stroke-width="3"/><text x="245.0" y="303.5" font-size="30" fill="#f2f2f2" text-anchor="middle" font-family="Segoe UI, Arial, sans-serif" font-weight="600">К</text><rect x="294" y="70" width="78" height="78" rx="12" fill="#2b2b2b" stroke="#3a3a3a" stroke-width="1.5"/><text x="333.0" y="119.5" font-size="30" fill="#f2f2f2" text-anchor="middle" font-family="Segoe UI, Arial, sans-serif" font-weight="600">П</text><rect x="294" y="158" width="78" height="78" rx="12" fill="#1d3f66" stroke="#3a3a3a" stroke-width="1.5"/><text x="333.0" y="207.5" font-size="30" fill="#f2f2f2" text-anchor="middle" font-family="Segoe UI, Arial, sans-serif" font-weight="600">Т</text><rect x="294" y="246" width="78" height="78" rx="12" fill="#2b2b2b" stroke="#ff9f2e" stroke-width="3"/><text x="333.0" y="295.5" font-size="30" fill="#f2f2f2" text-anchor="middle" font-family="Segoe UI, Arial, sans-serif" font-weight="600">Д</text><rect x="382" y="80" width="78" height="78" rx="12" fill="#2b2b2b" stroke="#ff9f2e" stroke-width="3"/><text x="421.0" y="129.5" font-size="30" fill="#f2f2f2" text-anchor="middle" font-family="Segoe UI, Arial, sans-serif" font-weight="600">Ц</text><rect x="382" y="168" width="78" height="78" rx="12" fill="#1d3f66" stroke="#3a3a3a" stroke-width="1.5"/><text x="421.0" y="217.5" font-size="30" fill="#f2f2f2" text-anchor="middle" font-family="Segoe UI, Arial, sans-serif" font-weight="600">С</text><rect x="382" y="256" width="78" height="78" rx="12" fill="#2b2b2b" stroke="#3a3a3a" stroke-width="1.5"/><text x="421.0" y="305.5" font-size="30" fill="#f2f2f2" text-anchor="middle" font-family="Segoe UI, Arial, sans-serif" font-weight="600">Б</text><rect x="470" y="90" width="78" height="78" rx="12" fill="#2b2b2b" stroke="#ff9f2e" stroke-width="3"/><text x="509.0" y="139.5" font-size="30" fill="#f2f2f2" text-anchor="middle" font-family="Segoe UI, Arial, sans-serif" font-weight="600">З</text><rect x="470" y="178" width="78" height="78" rx="12" fill="#1d3f66" stroke="#3a3a3a" stroke-width="1.5"/><text x="509.0" y="227.5" font-size="30" fill="#f2f2f2" text-anchor="middle" font-family="Segoe UI, Arial, sans-serif" font-weight="600">Р</text><rect x="470" y="266" width="78" height="78" rx="12" fill="#2b2b2b" stroke="#ff9f2e" stroke-width="3"/><text x="509.0" y="315.5" font-size="30" fill="#f2f2f2" text-anchor="middle" font-family="Segoe UI, Arial, sans-serif" font-weight="600">Ч</text><rect x="668" y="90" width="78" height="78" rx="12" fill="#2b2b2b" stroke="#3a3a3a" stroke-width="1.5"/><text x="707.0" y="139.5" font-size="30" fill="#f2f2f2" text-anchor="middle" font-family="Segoe UI, Arial, sans-serif" font-weight="600">Г</text><rect x="668" y="178" width="78" height="78" rx="12" fill="#1d3f66" stroke="#3a3a3a" stroke-width="1.5"/><text x="707.0" y="227.5" font-size="30" fill="#f2f2f2" text-anchor="middle" font-family="Segoe UI, Arial, sans-serif" font-weight="600">Х</text><rect x="668" y="266" width="78" height="78" rx="12" fill="#2b2b2b" stroke="#3a3a3a" stroke-width="1.5"/><text x="707.0" y="315.5" font-size="30" fill="#f2f2f2" text-anchor="middle" font-family="Segoe UI, Arial, sans-serif" font-weight="600">Ш</text><rect x="756" y="80" width="78" height="78" rx="12" fill="#2b2b2b" stroke="#3a3a3a" stroke-width="1.5"/><text x="795.0" y="129.5" font-size="30" fill="#f2f2f2" text-anchor="middle" font-family="Segoe UI, Arial, sans-serif" font-weight="600">Л</text><rect x="756" y="168" width="78" height="78" rx="12" fill="#1d3f66" stroke="#3a3a3a" stroke-width="1.5"/><text x="795.0" y="217.5" font-size="30" fill="#f2f2f2" text-anchor="middle" font-family="Segoe UI, Arial, sans-serif" font-weight="600">Н</text><rect x="756" y="256" width="78" height="78" rx="12" fill="#2b2b2b" stroke="#ff9f2e" stroke-width="3"/><text x="795.0" y="305.5" font-size="30" fill="#f2f2f2" text-anchor="middle" font-family="Segoe UI, Arial, sans-serif" font-weight="600">М</text><rect x="844" y="70" width="78" height="78" rx="12" fill="#2b2b2b" stroke="#3a3a3a" stroke-width="1.5"/><text x="883.0" y="119.5" font-size="30" fill="#f2f2f2" text-anchor="middle" font-family="Segoe UI, Arial, sans-serif" font-weight="600">У</text><rect x="844" y="158" width="78" height="78" rx="12" fill="#1d3f66" stroke="#3a3a3a" stroke-width="1.5"/><text x="883.0" y="207.5" font-size="30" fill="#f2f2f2" text-anchor="middle" font-family="Segoe UI, Arial, sans-serif" font-weight="600">О</text><rect x="844" y="246" width="78" height="78" rx="12" fill="#2b2b2b" stroke="#3a3a3a" stroke-width="1.5"/><text x="883.0" y="295.5" font-size="30" fill="#f2f2f2" text-anchor="middle" font-family="Segoe UI, Arial, sans-serif" font-weight="600">,</text><rect x="932" y="78" width="78" height="78" rx="12" fill="#2b2b2b" stroke="#3a3a3a" stroke-width="1.5"/><text x="971.0" y="127.5" font-size="30" fill="#f2f2f2" text-anchor="middle" font-family="Segoe UI, Arial, sans-serif" font-weight="600">І</text><rect x="932" y="166" width="78" height="78" rx="12" fill="#1d3f66" stroke="#3a3a3a" stroke-width="1.5"/><text x="971.0" y="215.5" font-size="30" fill="#f2f2f2" text-anchor="middle" font-family="Segoe UI, Arial, sans-serif" font-weight="600">А</text><rect x="932" y="254" width="78" height="78" rx="12" fill="#2b2b2b" stroke="#3a3a3a" stroke-width="1.5"/><text x="971.0" y="303.5" font-size="30" fill="#f2f2f2" text-anchor="middle" font-family="Segoe UI, Arial, sans-serif" font-weight="600">.</text><rect x="1020" y="96" width="78" height="78" rx="12" fill="#2b2b2b" stroke="#3a3a3a" stroke-width="1.5"/><text x="1059.0" y="145.5" font-size="30" fill="#f2f2f2" text-anchor="middle" font-family="Segoe UI, Arial, sans-serif" font-weight="600">Щ</text><rect x="1020" y="184" width="78" height="78" rx="12" fill="#1d3f66" stroke="#3a3a3a" stroke-width="1.5"/><text x="1059.0" y="233.5" font-size="30" fill="#f2f2f2" text-anchor="middle" font-family="Segoe UI, Arial, sans-serif" font-weight="600">Е</text><rect x="1020" y="272" width="78" height="78" rx="12" fill="#2b2b2b" stroke="#3a3a3a" stroke-width="1.5"/><text x="1059.0" y="321.5" font-size="30" fill="#f2f2f2" text-anchor="middle" font-family="Segoe UI, Arial, sans-serif" font-weight="600">Ь</text><rect x="1108" y="96" width="78" height="78" rx="12" fill="#2b2b2b" stroke="#3a3a3a" stroke-width="1.5"/><text x="1147.0" y="145.5" font-size="30" fill="#f2f2f2" text-anchor="middle" font-family="Segoe UI, Arial, sans-serif" font-weight="600">Ї</text><rect x="1108" y="184" width="78" height="78" rx="12" fill="#1d3f66" stroke="#3a3a3a" stroke-width="1.5"/><text x="1147.0" y="233.5" font-size="30" fill="#f2f2f2" text-anchor="middle" font-family="Segoe UI, Arial, sans-serif" font-weight="600">Ю</text><rect x="1108" y="272" width="78" height="78" rx="12" fill="#2b2b2b" stroke="#3a3a3a" stroke-width="1.5"/><text x="1147.0" y="321.5" font-size="30" fill="#f2f2f2" text-anchor="middle" font-family="Segoe UI, Arial, sans-serif" font-weight="600">Ф</text><rect x="258.8" y="360" width="78" height="64" rx="12" fill="#3d2a24" stroke="#4a352c" stroke-width="1.5" transform="rotate(6 297.8 399.0)"/><text x="297.8" y="397.0" font-size="16" fill="#e8e8e8" text-anchor="middle" font-family="Segoe UI, Arial, sans-serif" transform="rotate(6 297.8 399.0)">Ctrl</text><rect x="346.8" y="368" width="78" height="64" rx="12" fill="#3d2a24" stroke="#4a352c" stroke-width="1.5" transform="rotate(12 385.8 407.0)"/><text x="385.8" y="405.0" font-size="16" fill="#e8e8e8" text-anchor="middle" font-family="Segoe UI, Arial, sans-serif" transform="rotate(12 385.8 407.0)">L1</text><rect x="434.79999999999995" y="376" width="78" height="64" rx="12" fill="#3d2a24" stroke="#4a352c" stroke-width="1.5" transform="rotate(18 473.79999999999995 415.0)"/><text x="473.79999999999995" y="413.0" font-size="16" fill="#e8e8e8" text-anchor="middle" font-family="Segoe UI, Arial, sans-serif" transform="rotate(18 473.79999999999995 415.0)">Спейс</text><rect x="879.2" y="360" width="78" height="64" rx="12" fill="#3d2a24" stroke="#4a352c" stroke-width="1.5" transform="rotate(-6 918.2 399.0)"/><text x="918.2" y="397.0" font-size="16" fill="#e8e8e8" text-anchor="middle" font-family="Segoe UI, Arial, sans-serif" transform="rotate(-6 918.2 399.0)">Ентер</text><rect x="791.2" y="368" width="78" height="64" rx="12" fill="#3d2a24" stroke="#4a352c" stroke-width="1.5" transform="rotate(-12 830.2 407.0)"/><text x="830.2" y="405.0" font-size="16" fill="#e8e8e8" text-anchor="middle" font-family="Segoe UI, Arial, sans-serif" transform="rotate(-12 830.2 407.0)">L2</text><rect x="703.2" y="376" width="78" height="64" rx="12" fill="#3d2a24" stroke="#4a352c" stroke-width="1.5" transform="rotate(-18 742.2 415.0)"/><text x="742.2" y="413.0" font-size="16" fill="#e8e8e8" text-anchor="middle" font-family="Segoe UI, Arial, sans-serif" transform="rotate(-18 742.2 415.0)">Bksp</text><text x="613.0" y="480" font-size="16" fill="#ff9f2e" text-anchor="middle" font-family="Segoe UI, Arial, sans-serif">помаранчева рамка — клавіші, що змінилися відносно Евеліни 3.8 (М↔Ч, К↔Ц, Д↔З)</text></svg>